<svg xmlns="http://www.w3.org/2000/svg" version="1.1" xmlns:xlink="http://www.w3.org/1999/xlink" width="512" height="512" x="0" y="0" viewBox="0 0 1024 1024" style="enable-background:new 0 0 512 512" xml:space="preserve"><g><path d="M557.489 382.284c-.03 4.19-.293 8.348-.798 12.508l1.001-7.443a106.14 106.14 0 0 1-3.042 14.628c-.728 2.578-1.617 5.107-2.557 7.614-1.854 4.943 2.903-6.6.784-1.775a97.287 97.287 0 0 1-1.697 3.594c-2.124 4.341-4.657 8.471-7.401 12.444-1.137 1.647-4.314 5.752 1.254-1.451-.802 1.037-1.645 2.041-2.487 3.045-1.685 2.006-3.488 3.909-5.327 5.773-1.533 1.554-3.148 3.024-4.781 4.471a95.522 95.522 0 0 1-3.01 2.527c-4.028 3.29 5.695-4.269 1.495-1.198-4.255 3.11-8.816 5.782-13.514 8.161-2.06 1.042-9.837 4.195-.577.428-2.478 1.008-5.015 1.86-7.565 2.659-5.188 1.624-10.534 2.694-15.915 3.424l7.443-1a103.536 103.536 0 0 1-25.015 0l7.443 1a106.051 106.051 0 0 1-14.628-3.041c-2.577-.729-5.106-1.617-7.613-2.557-4.943-1.854 6.599 2.903 1.775.784a96.482 96.482 0 0 1-3.593-1.697c-4.341-2.124-8.471-4.658-12.444-7.401-1.647-1.138-5.751-4.316 1.452 1.253-1.037-.801-2.041-1.645-3.044-2.487-2.006-1.685-3.909-3.488-5.773-5.327-1.554-1.533-3.024-3.148-4.471-4.782-.869-.98-1.698-1.996-2.527-3.01-3.29-4.028 4.269 5.696 1.198 1.495-3.11-4.255-5.782-8.816-8.16-13.515-1.042-2.059-4.194-9.837-.428-.578-1.007-2.478-1.86-5.015-2.658-7.566-1.624-5.188-2.694-10.535-3.424-15.917l1 7.443a103.553 103.553 0 0 1 0-25.017l-1 7.443a106.168 106.168 0 0 1 3.041-14.628c.728-2.578 1.617-5.106 2.557-7.613 1.854-4.943-2.903 6.6-.785 1.775a95.666 95.666 0 0 1 1.698-3.593c2.124-4.341 4.656-8.47 7.399-12.444 1.138-1.647 4.315-5.752-1.253 1.452.802-1.037 1.645-2.041 2.487-3.044 1.684-2.006 3.488-3.909 5.327-5.773 1.533-1.554 3.148-3.024 4.781-4.471.981-.869 1.996-1.698 3.01-2.527 4.028-3.29-5.696 4.269-1.495 1.198 4.255-3.11 8.816-5.782 13.514-8.16 2.059-1.042 9.836-4.195.577-.428 2.478-1.008 5.015-1.86 7.566-2.659 5.188-1.624 10.535-2.694 15.916-3.424l-7.443 1a103.536 103.536 0 0 1 25.015 0l-7.443-1c4.954.672 9.816 1.682 14.627 3.041 2.577.728 5.106 1.617 7.612 2.557 4.943 1.854-6.599-2.903-1.775-.785 1.213.533 2.403 1.115 3.594 1.698 4.341 2.124 8.47 4.657 12.443 7.399 1.647 1.138 5.752 4.315-1.451-1.253 1.037.802 2.041 1.645 3.044 2.487 2.007 1.685 3.91 3.488 5.773 5.327 1.554 1.533 3.024 3.148 4.472 4.781.869.98 1.698 1.996 2.527 3.01 3.29 4.027-4.269-5.696-1.198-1.496 3.11 4.255 5.782 8.816 8.161 13.514 1.042 2.059 4.195 9.836.428.577 1.008 2.477 1.86 5.015 2.659 7.566 1.623 5.188 2.694 10.535 3.425 15.916l-1.001-7.443c.502 4.163.764 8.321.795 12.511.108 15.262 12.654 28 28 28 15.182 0 28.108-12.736 28-28-.397-55.893-38.099-105.52-91.919-120.729-54.15-15.302-112.886 9.624-141.389 57.536-28.824 48.452-19.652 111.966 19.577 151.727 39.554 40.092 103.286 47.513 151.72 19.578 38.232-22.051 61.7-64.258 62.012-108.113.108-15.264-12.818-28-28-28-15.347.001-27.893 12.739-28.001 28.001z" fill="#ff6100" opacity="1" data-original="#000000"></path><path d="M488.574 0c-94.117.141-187.677 27.515-266.471 79.128-76.438 50.07-138.931 121.59-176.873 204.826-19.488 42.751-33.185 87.703-39.576 134.288-6.913 50.389-6.362 100.36 1.604 150.608 14.512 91.545 57.401 177.52 119.064 246.383 61.269 68.424 142.832 118.486 231.193 143.212 91.891 25.714 192.014 23.493 282.664-6.241 87.129-28.578 166.033-81.979 224.283-152.866 29.176-35.507 53.63-74.48 71.729-116.76 19.476-45.492 31.797-92.418 37.495-141.578 10.961-94.543-7.873-191.492-50.966-276.112-41.442-81.383-107.158-150.249-185.516-196.908C662.39 23.433 575.558.13 488.574 0c-15.264-.023-28 12.754-28 28 0 15.281 12.737 27.977 28 28a474.771 474.771 0 0 1 62.435 4.2l-7.443-1a466.933 466.933 0 0 1 66.354 14.067c10.716 3.101 21.302 6.642 31.76 10.519a456.759 456.759 0 0 1 14.871 5.835c1.872.77 6.72 2.847-1.788-.767a452.35 452.35 0 0 1 12.123 5.378c19.976 9.176 39.241 19.875 57.694 31.813 9.182 5.939 18.125 12.245 26.86 18.821 1.047.788 2.088 1.585 3.128 2.382-7.235-5.543-3.102-2.394-1.529-1.161a461.502 461.502 0 0 1 19.13 15.902c16.414 14.366 31.742 29.957 45.966 46.488a461.808 461.808 0 0 1 10.027 12.098c1.468 1.829 7.492 9.607 1.281 1.549 1.867 2.422 3.7 4.871 5.52 7.331 6.505 8.795 12.658 17.849 18.521 27.083 11.789 18.571 22.161 38.031 31.168 58.096a458.366 458.366 0 0 1 3.186 7.296c-4.059-9.481-.152-.301.739 1.906a458.011 458.011 0 0 1 6.163 16.189c3.791 10.507 7.148 21.167 10.158 31.923 5.616 20.068 9.763 40.537 12.595 61.18l-1-7.444a469.844 469.844 0 0 1 0 124.873l1-7.444a466.93 466.93 0 0 1-14.067 66.356c-3.101 10.716-6.642 21.302-10.519 31.761a460.89 460.89 0 0 1-5.836 14.871c-.77 1.872-2.847 6.72.767-1.789-.519 1.223-1.048 2.439-1.577 3.657a461.338 461.338 0 0 1-3.801 8.467c-9.176 19.976-19.874 39.241-31.813 57.694-5.939 9.182-12.244 18.125-18.821 26.86a444.702 444.702 0 0 1-2.383 3.128c5.544-7.235 2.395-3.102 1.161-1.53a464.367 464.367 0 0 1-15.901 19.131c-14.366 16.413-29.957 31.741-46.488 45.965a463.43 463.43 0 0 1-12.098 10.026c-1.829 1.469-9.607 7.493-1.549 1.282a474.036 474.036 0 0 1-7.33 5.519c-8.796 6.505-17.849 12.658-27.084 18.521-18.571 11.789-38.031 22.16-58.096 31.166a458.411 458.411 0 0 1-7.296 3.187c9.481-4.059.301-.153-1.906.739a456.733 456.733 0 0 1-16.188 6.162c-10.507 3.791-21.167 7.148-31.923 10.158-20.068 5.615-40.537 9.763-61.18 12.594l7.443-1a469.822 469.822 0 0 1-124.87 0l7.443 1a466.792 466.792 0 0 1-66.354-14.066c-10.715-3.101-21.301-6.642-31.76-10.519a458.557 458.557 0 0 1-14.871-5.835c-1.873-.77-6.72-2.847 1.788.767-1.222-.519-2.439-1.049-3.656-1.578a451.705 451.705 0 0 1-8.467-3.8c-19.976-9.176-39.241-19.874-57.694-31.812-9.182-5.939-18.125-12.244-26.86-18.821-1.047-.788-2.087-1.585-3.128-2.382 7.235 5.544 3.101 2.394 1.529 1.161a461.242 461.242 0 0 1-19.13-15.902c-16.413-14.365-31.742-29.955-45.965-46.487a461.763 461.763 0 0 1-10.027-12.097c-1.468-1.829-7.493-9.607-1.282-1.549a467.806 467.806 0 0 1-5.519-7.331c-6.505-8.795-12.659-17.849-18.522-27.083-11.79-18.571-22.161-38.031-31.167-58.096a458.517 458.517 0 0 1-3.187-7.297c4.059 9.481.153.302-.739-1.905a454.86 454.86 0 0 1-6.163-16.189c-3.791-10.507-7.148-21.167-10.158-31.923-5.616-20.069-9.763-40.538-12.595-61.182l1 7.444a469.886 469.886 0 0 1 0-124.873l-1 7.444a466.933 466.933 0 0 1 14.067-66.354c3.101-10.716 6.642-21.302 10.519-31.76a458.557 458.557 0 0 1 5.835-14.871c.77-1.873 2.847-6.72-.767 1.788a458.282 458.282 0 0 1 5.378-12.123c9.176-19.976 19.875-39.241 31.812-57.694 5.94-9.182 12.245-18.125 18.821-26.861a451.908 451.908 0 0 1 2.383-3.127c-5.544 7.235-2.394 3.101-1.161 1.529a461.242 461.242 0 0 1 15.902-19.13c14.366-16.414 29.957-31.742 46.488-45.965a459.822 459.822 0 0 1 12.098-10.027c1.829-1.468 9.607-7.493 1.549-1.282 2.422-1.867 4.872-3.7 7.331-5.519 8.795-6.505 17.849-12.659 27.083-18.521 18.571-11.79 38.031-22.162 58.096-31.168a458.411 458.411 0 0 1 7.296-3.187c-9.481 4.059-.301.153 1.906-.739a456.06 456.06 0 0 1 16.189-6.163c10.507-3.791 21.167-7.148 31.923-10.158 20.068-5.616 40.538-9.763 61.18-12.595l-7.443 1a474.771 474.771 0 0 1 62.435-4.2c15.263-.023 28-12.719 28-28 0-15.246-12.737-28.023-28-28z" fill="#ff6100" opacity="1" data-original="#000000"></path><path d="M508.087 788.869a795.432 795.432 0 0 1-15.991-19.543c-1.35-1.7-2.689-3.407-4.027-5.116-.681-.871-1.359-1.744-2.038-2.617-2.916-3.753 4.555 5.908 1.638 2.119-3.056-3.97-6.077-7.968-9.078-11.979-12.645-16.903-24.813-34.162-36.632-51.652-26.265-38.867-50.724-79.003-72.897-120.345a1043.873 1043.873 0 0 1-24.128-47.852 846.025 846.025 0 0 1-10.732-23.702 751.036 751.036 0 0 1-2.65-6.184c3.923 9.243.601 1.388-.256-.693a670.653 670.653 0 0 1-4.87-12.202c-11.053-28.427-20.413-57.927-24.583-88.222l1 7.443c-2.419-18.17-2.283-36.392.114-54.568l-1 7.443a222.829 222.829 0 0 1 7.165-33.076c1.524-5.12 3.288-10.165 5.192-15.155.474-1.242.97-2.475 1.467-3.708 1.971-4.89-2.853 6.634-.763 1.798 1.225-2.833 2.536-5.629 3.882-8.407 4.779-9.864 10.402-19.308 16.625-28.326a216.206 216.206 0 0 1 4.6-6.371c3.107-4.169-4.393 5.609-1.187 1.518.807-1.03 1.632-2.044 2.458-3.059 3.574-4.395 7.359-8.615 11.266-12.714 3.606-3.784 7.382-7.404 11.251-10.917a217.51 217.51 0 0 1 5.917-5.147c1.905-1.607 10.71-8.416 2.511-2.15 8.692-6.642 17.941-12.538 27.537-17.784 4.635-2.534 9.384-4.853 14.192-7.037a206.675 206.675 0 0 1 3.639-1.599c-8.474 3.662-3.669 1.553-1.783.792 2.882-1.161 5.799-2.232 8.728-3.267 10.587-3.739 21.493-6.537 32.53-8.568 3.136-.577 6.29-1.054 9.449-1.491l-7.443 1a222.4 222.4 0 0 1 58.196 0l-7.444-1a222.786 222.786 0 0 1 33.075 7.164c5.119 1.524 10.165 3.288 15.154 5.191 1.242.474 2.475.971 3.707 1.467 4.891 1.971-6.634-2.853-1.798-.763 2.833 1.224 5.629 2.536 8.406 3.882 9.864 4.779 19.309 10.401 28.326 16.624a216.174 216.174 0 0 1 6.371 4.599c4.169 3.107-5.608-4.393-1.517-1.187a225.06 225.06 0 0 1 3.059 2.457c4.395 3.574 8.614 7.359 12.715 11.266 3.784 3.606 7.403 7.381 10.916 11.25a214.339 214.339 0 0 1 5.148 5.917c1.607 1.905 8.416 10.709 2.149 2.511 6.643 8.692 12.539 17.941 17.785 27.536 2.534 4.634 4.853 9.384 7.037 14.192.548 1.206 1.074 2.422 1.6 3.638-3.662-8.474-1.553-3.669-.793-1.783 1.161 2.882 2.232 5.799 3.268 8.728 3.738 10.586 6.537 21.492 8.568 32.529.577 3.136 1.055 6.291 1.491 9.449l-1-7.443c2.397 18.176 2.534 36.398.112 54.568l1.001-7.444c-2.572 18.665-7.216 36.968-12.851 54.927-3.136 9.994-6.642 19.869-10.359 29.66a644.456 644.456 0 0 1-5.769 14.607c-.894 2.194-4.763 11.391-.76 1.921a779.075 779.075 0 0 1-3.735 8.663c-18.866 43.147-41.41 84.679-65.645 125.024-18.054 30.057-37.231 59.444-57.42 88.11a1226.131 1226.131 0 0 1-27.94 38.115c-.914 1.196-1.832 2.39-2.75 3.582 6.315-8.197 1.753-2.275.304-.421a909.664 909.664 0 0 1-6.645 8.396 749.106 749.106 0 0 1-12.665 15.403c-9.838 11.648-11.465 28.133 0 39.598 10.108 10.108 29.741 11.671 39.598 0 56.355-66.725 104.927-141.181 146.365-217.957 22.408-41.516 42.698-84.587 57.963-129.273 12.887-37.727 21.741-77.861 18.271-117.9-4.427-51.092-24.221-98.026-56.748-137.53-30.323-36.827-72.96-63.586-118.61-76.867-47.464-13.808-100.222-12.358-146.819 4.097-47.605 16.811-87.463 47.372-117.521 87.704-29.141 39.103-44.51 87.969-45.909 136.492-1.138 39.478 9.851 79.135 23.256 115.903 32.218 88.368 80.928 171.159 134.229 248.322 20.667 29.92 42.422 59.246 65.925 87.009 9.871 11.66 29.48 10.118 39.598 0 11.457-11.454 9.854-27.958.002-39.595z" fill="#ff6100" opacity="1" data-original="#000000"></path></g></svg>